<mxfile host="app.diagrams.net" modified="2023-01-22T08:36:03.235Z" agent="5.0 (Windows NT 10.0; Win64; x64) AppleWebKit/537.36 (KHTML, like Gecko) Chrome/109.0.0.0 Safari/537.36" etag="qsMtjRzvfjNxTFy2H2Sp" version="20.8.10" type="github">
  <diagram name="ページ1" id="7Nk2e9HUdEKz2k-5D8tf">
    <mxGraphModel dx="610" dy="539" grid="1" gridSize="10" guides="1" tooltips="1" connect="1" arrows="1" fold="1" page="1" pageScale="1" pageWidth="827" pageHeight="1169" math="0" shadow="0">
      <root>
        <mxCell id="0" />
        <mxCell id="1" parent="0" />
        <mxCell id="UmCGXgc1reAKDLOZuCSz-17" value="" style="rounded=0;whiteSpace=wrap;html=1;" vertex="1" parent="1">
          <mxGeometry x="210" y="80" width="240" height="570" as="geometry" />
        </mxCell>
        <mxCell id="UmCGXgc1reAKDLOZuCSz-26" style="edgeStyle=orthogonalEdgeStyle;rounded=0;orthogonalLoop=1;jettySize=auto;html=1;exitX=1;exitY=0.3333333333333333;exitDx=0;exitDy=0;exitPerimeter=0;entryX=0;entryY=0.75;entryDx=0;entryDy=0;" edge="1" parent="1" source="UmCGXgc1reAKDLOZuCSz-1" target="UmCGXgc1reAKDLOZuCSz-5">
          <mxGeometry relative="1" as="geometry" />
        </mxCell>
        <mxCell id="UmCGXgc1reAKDLOZuCSz-27" style="edgeStyle=orthogonalEdgeStyle;rounded=0;orthogonalLoop=1;jettySize=auto;html=1;exitX=1;exitY=0.3333333333333333;exitDx=0;exitDy=0;exitPerimeter=0;entryX=0;entryY=0.75;entryDx=0;entryDy=0;" edge="1" parent="1" source="UmCGXgc1reAKDLOZuCSz-1" target="UmCGXgc1reAKDLOZuCSz-14">
          <mxGeometry relative="1" as="geometry" />
        </mxCell>
        <mxCell id="UmCGXgc1reAKDLOZuCSz-28" style="edgeStyle=orthogonalEdgeStyle;rounded=0;orthogonalLoop=1;jettySize=auto;html=1;exitX=1;exitY=0.3333333333333333;exitDx=0;exitDy=0;exitPerimeter=0;" edge="1" parent="1" source="UmCGXgc1reAKDLOZuCSz-1" target="UmCGXgc1reAKDLOZuCSz-15">
          <mxGeometry relative="1" as="geometry" />
        </mxCell>
        <mxCell id="UmCGXgc1reAKDLOZuCSz-29" style="edgeStyle=orthogonalEdgeStyle;rounded=0;orthogonalLoop=1;jettySize=auto;html=1;entryX=0;entryY=0.75;entryDx=0;entryDy=0;" edge="1" parent="1" target="UmCGXgc1reAKDLOZuCSz-16">
          <mxGeometry relative="1" as="geometry">
            <mxPoint x="110" y="230" as="sourcePoint" />
          </mxGeometry>
        </mxCell>
        <mxCell id="UmCGXgc1reAKDLOZuCSz-30" style="edgeStyle=orthogonalEdgeStyle;rounded=0;orthogonalLoop=1;jettySize=auto;html=1;exitX=1;exitY=0.3333333333333333;exitDx=0;exitDy=0;exitPerimeter=0;entryX=0;entryY=0.5;entryDx=0;entryDy=0;" edge="1" parent="1" source="UmCGXgc1reAKDLOZuCSz-1" target="UmCGXgc1reAKDLOZuCSz-19">
          <mxGeometry relative="1" as="geometry" />
        </mxCell>
        <mxCell id="UmCGXgc1reAKDLOZuCSz-31" style="edgeStyle=orthogonalEdgeStyle;rounded=0;orthogonalLoop=1;jettySize=auto;html=1;exitX=1;exitY=0.3333333333333333;exitDx=0;exitDy=0;exitPerimeter=0;entryX=0;entryY=0.5;entryDx=0;entryDy=0;" edge="1" parent="1" source="UmCGXgc1reAKDLOZuCSz-1" target="UmCGXgc1reAKDLOZuCSz-18">
          <mxGeometry relative="1" as="geometry" />
        </mxCell>
        <mxCell id="UmCGXgc1reAKDLOZuCSz-32" style="edgeStyle=orthogonalEdgeStyle;rounded=0;orthogonalLoop=1;jettySize=auto;html=1;exitX=1;exitY=0.3333333333333333;exitDx=0;exitDy=0;exitPerimeter=0;entryX=0;entryY=0.75;entryDx=0;entryDy=0;" edge="1" parent="1" source="UmCGXgc1reAKDLOZuCSz-1" target="UmCGXgc1reAKDLOZuCSz-20">
          <mxGeometry relative="1" as="geometry" />
        </mxCell>
        <mxCell id="UmCGXgc1reAKDLOZuCSz-33" style="edgeStyle=orthogonalEdgeStyle;rounded=0;orthogonalLoop=1;jettySize=auto;html=1;exitX=1;exitY=0.3333333333333333;exitDx=0;exitDy=0;exitPerimeter=0;entryX=0;entryY=0.75;entryDx=0;entryDy=0;" edge="1" parent="1" source="UmCGXgc1reAKDLOZuCSz-1" target="UmCGXgc1reAKDLOZuCSz-21">
          <mxGeometry relative="1" as="geometry" />
        </mxCell>
        <mxCell id="UmCGXgc1reAKDLOZuCSz-34" style="edgeStyle=orthogonalEdgeStyle;rounded=0;orthogonalLoop=1;jettySize=auto;html=1;exitX=1;exitY=0.3333333333333333;exitDx=0;exitDy=0;exitPerimeter=0;entryX=0;entryY=0.5;entryDx=0;entryDy=0;" edge="1" parent="1" source="UmCGXgc1reAKDLOZuCSz-1" target="UmCGXgc1reAKDLOZuCSz-22">
          <mxGeometry relative="1" as="geometry" />
        </mxCell>
        <mxCell id="UmCGXgc1reAKDLOZuCSz-35" style="edgeStyle=orthogonalEdgeStyle;rounded=0;orthogonalLoop=1;jettySize=auto;html=1;exitX=1;exitY=0.3333333333333333;exitDx=0;exitDy=0;exitPerimeter=0;entryX=0;entryY=0.5;entryDx=0;entryDy=0;" edge="1" parent="1" source="UmCGXgc1reAKDLOZuCSz-1" target="UmCGXgc1reAKDLOZuCSz-23">
          <mxGeometry relative="1" as="geometry" />
        </mxCell>
        <mxCell id="UmCGXgc1reAKDLOZuCSz-36" style="edgeStyle=orthogonalEdgeStyle;rounded=0;orthogonalLoop=1;jettySize=auto;html=1;exitX=1;exitY=0.3333333333333333;exitDx=0;exitDy=0;exitPerimeter=0;entryX=0;entryY=0.5;entryDx=0;entryDy=0;" edge="1" parent="1" source="UmCGXgc1reAKDLOZuCSz-1" target="UmCGXgc1reAKDLOZuCSz-24">
          <mxGeometry relative="1" as="geometry" />
        </mxCell>
        <mxCell id="UmCGXgc1reAKDLOZuCSz-37" style="edgeStyle=orthogonalEdgeStyle;rounded=0;orthogonalLoop=1;jettySize=auto;html=1;exitX=1;exitY=0.3333333333333333;exitDx=0;exitDy=0;exitPerimeter=0;entryX=0;entryY=0.5;entryDx=0;entryDy=0;" edge="1" parent="1" source="UmCGXgc1reAKDLOZuCSz-1" target="UmCGXgc1reAKDLOZuCSz-25">
          <mxGeometry relative="1" as="geometry" />
        </mxCell>
        <mxCell id="UmCGXgc1reAKDLOZuCSz-1" value="User" style="shape=umlActor;verticalLabelPosition=bottom;verticalAlign=top;html=1;outlineConnect=0;" vertex="1" parent="1">
          <mxGeometry x="80" y="210" width="30" height="60" as="geometry" />
        </mxCell>
        <mxCell id="UmCGXgc1reAKDLOZuCSz-5" value="個人ToDoの登録" style="rounded=1;whiteSpace=wrap;html=1;" vertex="1" parent="1">
          <mxGeometry x="260" y="120" width="150" height="30" as="geometry" />
        </mxCell>
        <mxCell id="UmCGXgc1reAKDLOZuCSz-13" value="ToDo管理システム" style="text;strokeColor=none;align=center;fillColor=none;html=1;verticalAlign=middle;whiteSpace=wrap;rounded=0;" vertex="1" parent="1">
          <mxGeometry x="280" y="90" width="110" height="30" as="geometry" />
        </mxCell>
        <mxCell id="UmCGXgc1reAKDLOZuCSz-14" value="個人ToDoの変更" style="rounded=1;whiteSpace=wrap;html=1;" vertex="1" parent="1">
          <mxGeometry x="260" y="160" width="150" height="30" as="geometry" />
        </mxCell>
        <mxCell id="UmCGXgc1reAKDLOZuCSz-15" value="個人ToDoの削除" style="rounded=1;whiteSpace=wrap;html=1;" vertex="1" parent="1">
          <mxGeometry x="260" y="200" width="150" height="30" as="geometry" />
        </mxCell>
        <mxCell id="UmCGXgc1reAKDLOZuCSz-16" value="個人ToDoの照会" style="rounded=1;whiteSpace=wrap;html=1;" vertex="1" parent="1">
          <mxGeometry x="260" y="240" width="150" height="30" as="geometry" />
        </mxCell>
        <mxCell id="UmCGXgc1reAKDLOZuCSz-18" value="メンバーの登録" style="rounded=1;whiteSpace=wrap;html=1;" vertex="1" parent="1">
          <mxGeometry x="260" y="280" width="150" height="30" as="geometry" />
        </mxCell>
        <mxCell id="UmCGXgc1reAKDLOZuCSz-19" value="メンバーの変更" style="rounded=1;whiteSpace=wrap;html=1;" vertex="1" parent="1">
          <mxGeometry x="260" y="320" width="150" height="30" as="geometry" />
        </mxCell>
        <mxCell id="UmCGXgc1reAKDLOZuCSz-20" value="メンバーの削除" style="rounded=1;whiteSpace=wrap;html=1;" vertex="1" parent="1">
          <mxGeometry x="260" y="360" width="150" height="30" as="geometry" />
        </mxCell>
        <mxCell id="UmCGXgc1reAKDLOZuCSz-21" value="メンバーの照会" style="rounded=1;whiteSpace=wrap;html=1;" vertex="1" parent="1">
          <mxGeometry x="260" y="400" width="150" height="30" as="geometry" />
        </mxCell>
        <mxCell id="UmCGXgc1reAKDLOZuCSz-22" value="全体ToDoの登録" style="rounded=1;whiteSpace=wrap;html=1;" vertex="1" parent="1">
          <mxGeometry x="260" y="440" width="150" height="30" as="geometry" />
        </mxCell>
        <mxCell id="UmCGXgc1reAKDLOZuCSz-23" value="全体ToDoの変更" style="rounded=1;whiteSpace=wrap;html=1;" vertex="1" parent="1">
          <mxGeometry x="260" y="480" width="150" height="30" as="geometry" />
        </mxCell>
        <mxCell id="UmCGXgc1reAKDLOZuCSz-24" value="全体ToDoの削除" style="rounded=1;whiteSpace=wrap;html=1;" vertex="1" parent="1">
          <mxGeometry x="260" y="520" width="150" height="30" as="geometry" />
        </mxCell>
        <mxCell id="UmCGXgc1reAKDLOZuCSz-25" value="全体ToDoの照会" style="rounded=1;whiteSpace=wrap;html=1;" vertex="1" parent="1">
          <mxGeometry x="260" y="560" width="150" height="30" as="geometry" />
        </mxCell>
      </root>
    </mxGraphModel>
  </diagram>
</mxfile>
